<svg width="364" height="222" viewBox="0 0 364 222" fill="none" xmlns="http://www.w3.org/2000/svg">
<g clip-path="url(#clip0_3357_8557)">
<rect width="364" height="222" fill="white"/>
<rect x="173.995" y="103" width="16" height="16" rx="8" fill="#525252"/>
<g clip-path="url(#clip1_3357_8557)">
<path d="M179.421 107.614C177.552 109.035 177.19 111.703 178.611 113.572C180.033 115.441 182.701 115.803 184.57 114.382C186.439 112.96 186.801 110.293 185.379 108.424C183.958 106.555 181.29 106.192 179.421 107.614Z" stroke="white" stroke-opacity="0.2" stroke-width="1.5" stroke-linecap="round" stroke-linejoin="round"/>
<path d="M184.569 114.382C182.7 115.803 180.033 115.441 178.611 113.572C177.189 111.703 177.552 109.035 179.421 107.614C180.353 106.904 181.484 106.639 182.56 106.783" stroke="white" stroke-width="1.5" stroke-linecap="round" stroke-linejoin="round"/>
</g>
<rect opacity="0.2" x="58.9951" y="-12" width="246" height="246" rx="123" stroke="#F5F5F5" stroke-width="2"/>
<rect opacity="0.3" x="79.665" y="8.66992" width="204.66" height="204.66" rx="102.33" stroke="#F5F5F5" stroke-width="2"/>
<rect opacity="0.4" x="100.325" y="29.3398" width="163.33" height="163.33" rx="81.665" stroke="#F5F5F5" stroke-width="2"/>
<rect opacity="0.5" x="120.995" y="50" width="122" height="122" rx="61" stroke="#F5F5F5" stroke-width="2"/>
<rect opacity="0.6" x="141.665" y="70.6699" width="80.66" height="80.66" rx="40.33" stroke="#F5F5F5" stroke-width="2"/>
<rect opacity="0.7" x="162.325" y="91.3398" width="39.33" height="39.33" rx="19.665" stroke="#F5F5F5" stroke-width="2"/>
<path d="M182.665 48.5C171.895 48.5 163.165 39.7696 163.165 29C163.165 18.2304 171.895 9.5 182.665 9.5C193.435 9.5 202.165 18.2304 202.165 29C202.165 39.7696 193.435 48.5 182.665 48.5Z" fill="white"/>
<path d="M182.665 48.5C171.895 48.5 163.165 39.7696 163.165 29C163.165 18.2304 171.895 9.5 182.665 9.5C193.435 9.5 202.165 18.2304 202.165 29C202.165 39.7696 193.435 48.5 182.665 48.5Z" stroke="#F5F5F5"/>
<g clip-path="url(#clip2_3357_8557)">
<path fill-rule="evenodd" clip-rule="evenodd" d="M182.933 20.7112C183.215 20.8068 183.424 21.0453 183.482 21.3369C183.859 23.2202 184.999 25.0504 186.519 26.2663C188.335 27.7194 189.332 29.5249 189.332 31.5003C189.332 32.3758 189.159 33.2427 188.824 34.0516C188.489 34.8604 187.998 35.5953 187.379 36.2144C186.76 36.8334 186.025 37.3245 185.216 37.6595C184.408 37.9946 183.541 38.167 182.665 38.167C181.79 38.167 180.923 37.9946 180.114 37.6595C179.305 37.3245 178.57 36.8334 177.951 36.2144C177.332 35.5953 176.841 34.8604 176.506 34.0516C176.171 33.2427 175.999 32.3758 175.999 31.5003C175.999 30.3559 176.42 29.2195 177.015 28.4785C177.237 28.2028 177.608 28.0969 177.942 28.2142C178.275 28.3316 178.499 28.6467 178.499 29.0003C178.499 29.3319 178.63 29.6498 178.865 29.8842C179.099 30.1186 179.417 30.2503 179.749 30.2503C180.08 30.2503 180.398 30.1186 180.632 29.8842C180.867 29.6498 180.999 29.3319 180.999 29.0003C180.999 28.2828 180.823 27.953 180.514 27.374C180.435 27.2267 180.348 27.0632 180.253 26.873C179.711 25.7896 179.639 24.7087 180.018 23.6565C180.383 22.6432 181.14 21.7277 182.116 20.8732C182.34 20.6774 182.651 20.6156 182.933 20.7112ZM180.999 26.5003L181.744 26.1277C181.805 26.2502 181.872 26.3731 181.94 26.4995C182.28 27.1254 182.665 27.8357 182.665 29.0003C182.665 29.7739 182.358 30.5158 181.811 31.0627C181.264 31.6097 180.522 31.917 179.749 31.917C178.979 31.917 178.241 31.6129 177.695 31.0711C177.676 31.2124 177.665 31.3562 177.665 31.5003C177.665 32.1569 177.795 32.8071 178.046 33.4138C178.297 34.0204 178.665 34.5716 179.13 35.0359C179.594 35.5002 180.145 35.8685 180.752 36.1197C181.358 36.371 182.009 36.5003 182.665 36.5003C183.322 36.5003 183.972 36.371 184.579 36.1197C185.185 35.8685 185.736 35.5002 186.201 35.0359C186.665 34.5716 187.033 34.0204 187.285 33.4138C187.536 32.8071 187.665 32.1569 187.665 31.5003C187.665 30.1425 186.995 28.7813 185.478 27.5677C184.05 26.4252 182.903 24.8367 182.257 23.0979C181.934 23.4923 181.714 23.8656 181.586 24.221C181.371 24.817 181.392 25.4251 181.744 26.1275L180.999 26.5003Z" fill="#FB923C"/>
</g>
<path d="M275.665 121.5C264.895 121.5 256.165 112.77 256.165 102C256.165 91.2304 264.895 82.5 275.665 82.5C286.435 82.5 295.165 91.2304 295.165 102C295.165 112.77 286.435 121.5 275.665 121.5Z" fill="white"/>
<path d="M275.665 121.5C264.895 121.5 256.165 112.77 256.165 102C256.165 91.2304 264.895 82.5 275.665 82.5C286.435 82.5 295.165 91.2304 295.165 102C295.165 112.77 286.435 121.5 275.665 121.5Z" stroke="#F5F5F5"/>
<g clip-path="url(#clip3_3357_8557)">
<path fill-rule="evenodd" clip-rule="evenodd" d="M273.064 93.5652C273.533 93.0964 274.169 92.833 274.832 92.833H276.499C277.162 92.833 277.797 93.0964 278.266 93.5652C278.735 94.0341 278.999 94.67 278.999 95.333V98.6663H282.332C282.995 98.6663 283.631 98.9297 284.1 99.3986C284.568 99.8674 284.832 100.503 284.832 101.166V102.833C284.832 103.496 284.568 104.132 284.1 104.601C283.631 105.07 282.995 105.333 282.332 105.333H278.999V108.666C278.999 109.329 278.735 109.965 278.266 110.434C277.797 110.903 277.162 111.166 276.499 111.166H274.832C273.455 111.166 272.332 110.043 272.332 108.666V105.333H268.999C267.622 105.333 266.499 104.21 266.499 102.833V101.166C266.499 100.503 266.762 99.8674 267.231 99.3986C267.7 98.9297 268.335 98.6663 268.999 98.6663H272.332V95.333C272.332 94.67 272.595 94.0341 273.064 93.5652ZM274.832 94.4997C274.611 94.4997 274.399 94.5875 274.243 94.7438C274.086 94.9 273.999 95.112 273.999 95.333V99.4997C273.999 99.9599 273.625 100.333 273.165 100.333H268.999C268.778 100.333 268.566 100.421 268.409 100.577C268.253 100.733 268.165 100.945 268.165 101.166V102.833C268.165 103.289 268.542 103.666 268.999 103.666H273.165C273.625 103.666 273.999 104.039 273.999 104.5V108.666C273.999 109.123 274.375 109.5 274.832 109.5H276.499C276.72 109.5 276.932 109.412 277.088 109.256C277.244 109.099 277.332 108.887 277.332 108.666V104.5C277.332 104.039 277.705 103.666 278.165 103.666H282.332C282.553 103.666 282.765 103.579 282.921 103.422C283.077 103.266 283.165 103.054 283.165 102.833V101.166C283.165 100.945 283.077 100.733 282.921 100.577C282.765 100.421 282.553 100.333 282.332 100.333H278.165C277.705 100.333 277.332 99.9599 277.332 99.4997V95.333C277.332 95.112 277.244 94.9 277.088 94.7438C276.932 94.5875 276.72 94.4997 276.499 94.4997H274.832Z" fill="#EC4899"/>
</g>
<path d="M181.665 192.5C170.895 192.5 162.165 183.77 162.165 173C162.165 162.23 170.895 153.5 181.665 153.5C192.435 153.5 201.165 162.23 201.165 173C201.165 183.77 192.435 192.5 181.665 192.5Z" fill="white"/>
<path d="M181.665 192.5C170.895 192.5 162.165 183.77 162.165 173C162.165 162.23 170.895 153.5 181.665 153.5C192.435 153.5 201.165 162.23 201.165 173C201.165 183.77 192.435 192.5 181.665 192.5Z" stroke="#F5F5F5"/>
<g clip-path="url(#clip4_3357_8557)">
<path fill-rule="evenodd" clip-rule="evenodd" d="M174.207 174.709C175.301 173.615 176.785 173 178.332 173C179.879 173 181.363 173.615 182.457 174.709C183.551 175.803 184.165 177.286 184.165 178.833C184.165 179.294 183.792 179.667 183.332 179.667C182.872 179.667 182.499 179.294 182.499 178.833C182.499 177.728 182.06 176.668 181.278 175.887C180.497 175.106 179.437 174.667 178.332 174.667C177.227 174.667 176.167 175.106 175.386 175.887C174.604 176.668 174.165 177.728 174.165 178.833C174.165 179.294 173.792 179.667 173.332 179.667C172.872 179.667 172.499 179.294 172.499 178.833C172.499 177.286 173.113 175.803 174.207 174.709Z" fill="#DC2626"/>
<path fill-rule="evenodd" clip-rule="evenodd" d="M178.332 168C176.951 168 175.832 169.119 175.832 170.5C175.832 171.88 176.951 173 178.332 173C179.712 173 180.832 171.88 180.832 170.5C180.832 169.119 179.712 168 178.332 168ZM174.165 170.5C174.165 168.198 176.031 166.333 178.332 166.333C180.633 166.333 182.498 168.198 182.498 170.5C182.498 172.801 180.633 174.666 178.332 174.666C176.031 174.666 174.165 172.801 174.165 170.5Z" fill="#DC2626"/>
<path fill-rule="evenodd" clip-rule="evenodd" d="M185.243 169.077C185.568 168.752 186.096 168.752 186.421 169.077L190.588 173.244C190.913 173.569 190.913 174.097 190.588 174.422C190.262 174.748 189.735 174.748 189.409 174.422L185.243 170.256C184.917 169.93 184.917 169.403 185.243 169.077Z" fill="#DC2626"/>
<path fill-rule="evenodd" clip-rule="evenodd" d="M190.588 169.077C190.913 169.403 190.913 169.93 190.588 170.256L186.421 174.422C186.096 174.748 185.568 174.748 185.243 174.422C184.917 174.097 184.917 173.569 185.243 173.244L189.409 169.077C189.735 168.752 190.262 168.752 190.588 169.077Z" fill="#DC2626"/>
</g>
<path d="M182.345 130.5C171.575 130.5 162.845 121.77 162.845 111C162.845 100.23 171.575 91.5 182.345 91.5C193.114 91.5 201.845 100.23 201.845 111C201.845 121.77 193.114 130.5 182.345 130.5Z" fill="white"/>
<path d="M182.345 130.5C171.575 130.5 162.845 121.77 162.845 111C162.845 100.23 171.575 91.5 182.345 91.5C193.114 91.5 201.845 100.23 201.845 111C201.845 121.77 193.114 130.5 182.345 130.5Z" stroke="#F5F5F5"/>
<g clip-path="url(#clip5_3357_8557)">
<path fill-rule="evenodd" clip-rule="evenodd" d="M192.817 106.118C193.142 106.292 193.345 106.631 193.345 107V115C193.345 115.369 193.142 115.708 192.817 115.882C192.491 116.056 192.097 116.037 191.79 115.832L185.79 111.832C185.512 111.647 185.345 111.334 185.345 111C185.345 110.666 185.512 110.353 185.79 110.168L191.79 106.168C192.097 105.963 192.491 105.944 192.817 106.118ZM188.148 111L191.345 113.131V108.869L188.148 111Z" fill="#0A0A0A"/>
<path fill-rule="evenodd" clip-rule="evenodd" d="M174.345 106C173.792 106 173.345 106.448 173.345 107V115C173.345 115.552 173.792 116 174.345 116H184.345C184.897 116 185.345 115.552 185.345 115V107C185.345 106.448 184.897 106 184.345 106H174.345ZM171.345 107C171.345 105.343 172.688 104 174.345 104H184.345C186.002 104 187.345 105.343 187.345 107V115C187.345 116.657 186.002 118 184.345 118H174.345C172.688 118 171.345 116.657 171.345 115V107Z" fill="#0A0A0A"/>
</g>
<path d="M88.665 122.5C77.8955 122.5 69.165 113.77 69.165 103C69.165 92.2304 77.8955 83.5 88.665 83.5C99.4346 83.5 108.165 92.2304 108.165 103C108.165 113.77 99.4346 122.5 88.665 122.5Z" fill="white"/>
<path d="M88.665 122.5C77.8955 122.5 69.165 113.77 69.165 103C69.165 92.2304 77.8955 83.5 88.665 83.5C99.4346 83.5 108.165 92.2304 108.165 103C108.165 113.77 99.4346 122.5 88.665 122.5Z" stroke="#F5F5F5"/>
<g clip-path="url(#clip6_3357_8557)">
<path fill-rule="evenodd" clip-rule="evenodd" d="M88.3724 93.8861C88.5611 93.8153 88.769 93.8153 88.9576 93.8861L95.6243 96.3861C95.9496 96.508 96.165 96.819 96.165 97.1663V103C96.165 105.872 94.2636 108.167 92.5471 109.668C91.6714 110.435 90.7996 111.034 90.1484 111.441C89.8219 111.645 89.5486 111.802 89.3551 111.909C89.2583 111.963 89.1812 112.004 89.1273 112.032C89.1003 112.046 89.0791 112.057 89.064 112.065L89.0461 112.074L89.0407 112.077L89.0389 112.078C89.0386 112.078 89.0377 112.078 88.665 111.333C88.2924 112.078 88.2921 112.078 88.2918 112.078L88.2894 112.077L88.284 112.074L88.2661 112.065C88.251 112.057 88.2298 112.046 88.2028 112.032C88.1489 112.004 88.0718 111.963 87.975 111.909C87.7814 111.802 87.5082 111.645 87.1817 111.441C86.5305 111.034 85.6587 110.435 84.783 109.668C83.0665 108.167 81.165 105.872 81.165 103V97.1663C81.165 96.819 81.3805 96.508 81.7058 96.3861L88.3724 93.8861ZM88.665 111.333L88.2918 112.078C88.5265 112.195 88.8031 112.196 89.0377 112.078L88.665 111.333ZM88.665 110.385C88.8247 110.295 89.029 110.175 89.265 110.027C89.8638 109.653 90.6587 109.106 91.4496 108.414C93.0665 106.999 94.4984 105.128 94.4984 103V97.7438L88.665 95.5563L82.8317 97.7438V103C82.8317 105.128 84.2636 106.999 85.8805 108.414C86.6714 109.106 87.4663 109.653 88.065 110.027C88.3011 110.175 88.5053 110.295 88.665 110.385Z" fill="#3B82F6"/>
</g>
</g>
<defs>
<clipPath id="clip0_3357_8557">
<rect width="364" height="222" fill="white"/>
</clipPath>
<clipPath id="clip1_3357_8557">
<rect width="10.0043" height="10.0043" fill="white" transform="translate(189.005 111.95) rotate(142.74)"/>
</clipPath>
<clipPath id="clip2_3357_8557">
<rect width="20" height="20" fill="white" transform="translate(172.665 19)"/>
</clipPath>
<clipPath id="clip3_3357_8557">
<rect width="20" height="20" fill="white" transform="translate(265.665 92)"/>
</clipPath>
<clipPath id="clip4_3357_8557">
<rect width="20" height="20" fill="white" transform="translate(171.665 163)"/>
</clipPath>
<clipPath id="clip5_3357_8557">
<rect width="20" height="20" fill="white" transform="translate(172.345 101)"/>
</clipPath>
<clipPath id="clip6_3357_8557">
<rect width="20" height="20" fill="white" transform="translate(78.665 93)"/>
</clipPath>
</defs>
</svg>
