<svg width="570" height="222" viewBox="0 0 570 222" fill="none" xmlns="http://www.w3.org/2000/svg">
<g clip-path="url(#clip0_3357_8697)">
<rect width="570" height="222" fill="white"/>
<rect x="277.33" y="129" width="16" height="16" rx="8" fill="#525252"/>
<g clip-path="url(#clip1_3357_8697)">
<path d="M282.756 133.614C280.887 135.035 280.524 137.703 281.946 139.572C283.368 141.441 286.035 141.803 287.904 140.382C289.773 138.96 290.136 136.293 288.714 134.424C287.292 132.555 284.625 132.192 282.756 133.614Z" stroke="white" stroke-opacity="0.2" stroke-width="1.5" stroke-linecap="round" stroke-linejoin="round"/>
<path d="M287.904 140.382C286.035 141.803 283.368 141.441 281.946 139.572C280.524 137.703 280.887 135.035 282.756 133.614C283.688 132.904 284.819 132.639 285.895 132.783" stroke="white" stroke-width="1.5" stroke-linecap="round" stroke-linejoin="round"/>
</g>
<rect opacity="0.2" x="162.33" y="14" width="246" height="246" rx="123" stroke="#F5F5F5" stroke-width="2"/>
<rect opacity="0.3" x="183" y="34.6699" width="204.66" height="204.66" rx="102.33" stroke="#F5F5F5" stroke-width="2"/>
<rect opacity="0.4" x="203.66" y="55.3398" width="163.33" height="163.33" rx="81.665" stroke="#F5F5F5" stroke-width="2"/>
<rect opacity="0.5" x="224.33" y="76" width="122" height="122" rx="61" stroke="#F5F5F5" stroke-width="2"/>
<rect opacity="0.6" x="245" y="96.6699" width="80.66" height="80.66" rx="40.33" stroke="#F5F5F5" stroke-width="2"/>
<rect opacity="0.7" x="265.66" y="117.34" width="39.33" height="39.33" rx="19.665" stroke="#F5F5F5" stroke-width="2"/>
<path d="M176.68 125.5H228.68C235.031 125.5 240.18 130.649 240.18 137C240.18 143.351 235.031 148.5 228.68 148.5H176.68C170.328 148.5 165.18 143.351 165.18 137C165.18 130.649 170.328 125.5 176.68 125.5Z" fill="white"/>
<path d="M176.68 125.5H228.68C235.031 125.5 240.18 130.649 240.18 137C240.18 143.351 235.031 148.5 228.68 148.5H176.68C170.328 148.5 165.18 143.351 165.18 137C165.18 130.649 170.328 125.5 176.68 125.5Z" stroke="#F5F5F5"/>
<path d="M180.63 134.455C180.579 134.023 180.372 133.688 180.008 133.449C179.645 133.21 179.199 133.091 178.67 133.091C178.284 133.091 177.946 133.153 177.656 133.278C177.369 133.403 177.145 133.575 176.983 133.794C176.824 134.013 176.744 134.261 176.744 134.54C176.744 134.773 176.799 134.973 176.91 135.141C177.024 135.305 177.169 135.443 177.345 135.554C177.521 135.662 177.706 135.751 177.899 135.822C178.092 135.891 178.27 135.946 178.431 135.989L179.318 136.227C179.545 136.287 179.798 136.369 180.076 136.474C180.358 136.58 180.626 136.723 180.882 136.905C181.14 137.084 181.353 137.314 181.521 137.595C181.689 137.876 181.772 138.222 181.772 138.631C181.772 139.102 181.649 139.528 181.402 139.909C181.157 140.29 180.799 140.592 180.328 140.817C179.859 141.041 179.289 141.153 178.619 141.153C177.994 141.153 177.453 141.053 176.995 140.851C176.541 140.649 176.183 140.368 175.922 140.007C175.663 139.646 175.517 139.227 175.483 138.75H176.574C176.602 139.08 176.713 139.352 176.906 139.568C177.102 139.781 177.349 139.94 177.647 140.045C177.949 140.148 178.272 140.199 178.619 140.199C179.022 140.199 179.385 140.134 179.706 140.003C180.027 139.869 180.281 139.685 180.468 139.449C180.656 139.21 180.75 138.932 180.75 138.614C180.75 138.324 180.669 138.088 180.507 137.906C180.345 137.724 180.132 137.577 179.868 137.463C179.603 137.349 179.318 137.25 179.011 137.165L177.937 136.858C177.255 136.662 176.716 136.382 176.318 136.018C175.92 135.655 175.721 135.179 175.721 134.591C175.721 134.102 175.853 133.676 176.118 133.312C176.385 132.946 176.743 132.662 177.191 132.46C177.643 132.256 178.147 132.153 178.704 132.153C179.267 132.153 179.767 132.254 180.204 132.456C180.642 132.655 180.988 132.928 181.244 133.274C181.502 133.621 181.639 134.014 181.653 134.455H180.63ZM184.311 138.614L184.294 137.369H184.499L187.362 134.455H188.607L185.555 137.54H185.47L184.311 138.614ZM183.374 141V132.273H184.379V141H183.374ZM187.533 141L184.976 137.761L185.692 137.062L188.811 141H187.533ZM189.901 141V134.455H190.907V141H189.901ZM190.412 133.364C190.216 133.364 190.047 133.297 189.905 133.163C189.766 133.03 189.696 132.869 189.696 132.682C189.696 132.494 189.766 132.334 189.905 132.2C190.047 132.067 190.216 132 190.412 132C190.608 132 190.776 132.067 190.915 132.2C191.057 132.334 191.128 132.494 191.128 132.682C191.128 132.869 191.057 133.03 190.915 133.163C190.776 133.297 190.608 133.364 190.412 133.364ZM193.754 137.062V141H192.749V134.455H193.72V135.477H193.805C193.959 135.145 194.192 134.878 194.504 134.676C194.817 134.472 195.22 134.369 195.714 134.369C196.158 134.369 196.545 134.46 196.878 134.642C197.21 134.821 197.469 135.094 197.653 135.46C197.838 135.824 197.93 136.284 197.93 136.841V141H196.925V136.909C196.925 136.395 196.791 135.994 196.524 135.707C196.257 135.418 195.891 135.273 195.425 135.273C195.104 135.273 194.817 135.342 194.564 135.482C194.314 135.621 194.116 135.824 193.972 136.091C193.827 136.358 193.754 136.682 193.754 137.062ZM205.802 141.136C205.189 141.136 204.66 140.991 204.217 140.702C203.774 140.412 203.433 140.013 203.194 139.504C202.956 138.996 202.836 138.415 202.836 137.761C202.836 137.097 202.958 136.51 203.203 136.001C203.45 135.49 203.794 135.091 204.234 134.804C204.677 134.514 205.194 134.369 205.785 134.369C206.245 134.369 206.66 134.455 207.029 134.625C207.399 134.795 207.701 135.034 207.937 135.341C208.173 135.648 208.319 136.006 208.376 136.415H207.37C207.294 136.116 207.123 135.852 206.859 135.622C206.598 135.389 206.245 135.273 205.802 135.273C205.41 135.273 205.066 135.375 204.771 135.58C204.478 135.781 204.25 136.067 204.085 136.436C203.923 136.803 203.842 137.233 203.842 137.727C203.842 138.233 203.922 138.673 204.081 139.048C204.243 139.423 204.47 139.714 204.762 139.922C205.058 140.129 205.404 140.233 205.802 140.233C206.064 140.233 206.301 140.188 206.514 140.097C206.727 140.006 206.907 139.875 207.055 139.705C207.203 139.534 207.308 139.33 207.37 139.091H208.376C208.319 139.477 208.179 139.825 207.954 140.135C207.733 140.442 207.439 140.686 207.072 140.868C206.708 141.047 206.285 141.136 205.802 141.136ZM212.505 141.136C211.914 141.136 211.396 140.996 210.95 140.714C210.507 140.433 210.16 140.04 209.91 139.534C209.663 139.028 209.539 138.437 209.539 137.761C209.539 137.08 209.663 136.484 209.91 135.976C210.16 135.467 210.507 135.072 210.95 134.791C211.396 134.51 211.914 134.369 212.505 134.369C213.096 134.369 213.613 134.51 214.056 134.791C214.502 135.072 214.849 135.467 215.096 135.976C215.346 136.484 215.471 137.08 215.471 137.761C215.471 138.437 215.346 139.028 215.096 139.534C214.849 140.04 214.502 140.433 214.056 140.714C213.613 140.996 213.096 141.136 212.505 141.136ZM212.505 140.233C212.954 140.233 213.324 140.118 213.613 139.888C213.903 139.658 214.118 139.355 214.257 138.98C214.396 138.605 214.466 138.199 214.466 137.761C214.466 137.324 214.396 136.916 214.257 136.538C214.118 136.161 213.903 135.855 213.613 135.622C213.324 135.389 212.954 135.273 212.505 135.273C212.056 135.273 211.687 135.389 211.397 135.622C211.108 135.855 210.893 136.161 210.754 136.538C210.615 136.916 210.545 137.324 210.545 137.761C210.545 138.199 210.615 138.605 210.754 138.98C210.893 139.355 211.108 139.658 211.397 139.888C211.687 140.118 212.056 140.233 212.505 140.233ZM218.012 132.273V141H217.006V132.273H218.012ZM222.513 141.136C221.922 141.136 221.404 140.996 220.958 140.714C220.515 140.433 220.168 140.04 219.918 139.534C219.671 139.028 219.547 138.437 219.547 137.761C219.547 137.08 219.671 136.484 219.918 135.976C220.168 135.467 220.515 135.072 220.958 134.791C221.404 134.51 221.922 134.369 222.513 134.369C223.104 134.369 223.621 134.51 224.064 134.791C224.51 135.072 224.857 135.467 225.104 135.976C225.354 136.484 225.479 137.08 225.479 137.761C225.479 138.437 225.354 139.028 225.104 139.534C224.857 140.04 224.51 140.433 224.064 140.714C223.621 140.996 223.104 141.136 222.513 141.136ZM222.513 140.233C222.962 140.233 223.331 140.118 223.621 139.888C223.911 139.658 224.125 139.355 224.265 138.98C224.404 138.605 224.473 138.199 224.473 137.761C224.473 137.324 224.404 136.916 224.265 136.538C224.125 136.161 223.911 135.855 223.621 135.622C223.331 135.389 222.962 135.273 222.513 135.273C222.064 135.273 221.695 135.389 221.405 135.622C221.115 135.855 220.901 136.161 220.762 136.538C220.623 136.916 220.553 137.324 220.553 137.761C220.553 138.199 220.623 138.605 220.762 138.98C220.901 139.355 221.115 139.658 221.405 139.888C221.695 140.118 222.064 140.233 222.513 140.233ZM227.014 141V134.455H227.986V135.443H228.054C228.173 135.119 228.389 134.857 228.702 134.655C229.014 134.453 229.366 134.352 229.759 134.352C229.832 134.352 229.925 134.354 230.036 134.357C230.146 134.359 230.23 134.364 230.287 134.369V135.392C230.253 135.384 230.175 135.371 230.053 135.354C229.933 135.334 229.807 135.324 229.673 135.324C229.355 135.324 229.071 135.391 228.821 135.524C228.574 135.655 228.378 135.837 228.233 136.07C228.091 136.3 228.02 136.562 228.02 136.858V141H227.014Z" fill="#0A0A0A"/>
<path d="M245.68 39.5H324.68C331.031 39.5 336.18 44.6487 336.18 51C336.18 57.3513 331.031 62.5 324.68 62.5H245.68C239.328 62.5 234.18 57.3513 234.18 51C234.18 44.6487 239.328 39.5 245.68 39.5Z" fill="white"/>
<path d="M245.68 39.5H324.68C331.031 39.5 336.18 44.6487 336.18 51C336.18 57.3513 331.031 62.5 324.68 62.5H245.68C239.328 62.5 234.18 57.3513 234.18 51C234.18 44.6487 239.328 39.5 245.68 39.5Z" stroke="#F5F5F5"/>
<path d="M244.74 55V46.2727H249.973V47.2102H245.797V50.1591H249.581V51.0966H245.797V55H244.74ZM253.573 55.1534C253.158 55.1534 252.782 55.0753 252.444 54.919C252.106 54.7599 251.837 54.5312 251.638 54.233C251.44 53.9318 251.34 53.5682 251.34 53.142C251.34 52.767 251.414 52.4631 251.562 52.2301C251.71 51.9943 251.907 51.8097 252.154 51.6761C252.401 51.5426 252.674 51.4432 252.972 51.3778C253.273 51.3097 253.576 51.2557 253.88 51.2159C254.278 51.1648 254.6 51.1264 254.847 51.1009C255.097 51.0724 255.279 51.0256 255.393 50.9602C255.509 50.8949 255.567 50.7812 255.567 50.6193V50.5852C255.567 50.1648 255.452 49.8381 255.222 49.6051C254.995 49.3722 254.65 49.2557 254.187 49.2557C253.707 49.2557 253.33 49.3608 253.058 49.571C252.785 49.7812 252.593 50.0057 252.482 50.2443L251.528 49.9034C251.698 49.5057 251.925 49.196 252.21 48.9744C252.496 48.75 252.809 48.5937 253.147 48.5057C253.488 48.4148 253.823 48.3693 254.153 48.3693C254.363 48.3693 254.604 48.3949 254.877 48.446C255.153 48.4943 255.418 48.5952 255.674 48.7486C255.933 48.902 256.147 49.1335 256.317 49.4432C256.488 49.7528 256.573 50.1676 256.573 50.6875V55H255.567V54.1136H255.516C255.448 54.2557 255.335 54.4077 255.175 54.5696C255.016 54.7315 254.805 54.8693 254.54 54.983C254.276 55.0966 253.954 55.1534 253.573 55.1534ZM253.727 54.25C254.124 54.25 254.46 54.1719 254.732 54.0156C255.008 53.8594 255.215 53.6577 255.354 53.4105C255.496 53.1634 255.567 52.9034 255.567 52.6307V51.7102C255.525 51.7614 255.431 51.8082 255.286 51.8509C255.144 51.8906 254.979 51.9261 254.792 51.9574C254.607 51.9858 254.427 52.0114 254.251 52.0341C254.077 52.054 253.937 52.071 253.829 52.0852C253.567 52.1193 253.323 52.1747 253.096 52.2514C252.871 52.3253 252.69 52.4375 252.55 52.5881C252.414 52.7358 252.346 52.9375 252.346 53.1932C252.346 53.5426 252.475 53.8068 252.734 53.9858C252.995 54.1619 253.326 54.25 253.727 54.25ZM261.068 55.1364C260.454 55.1364 259.926 54.9915 259.483 54.7017C259.039 54.4119 258.699 54.0128 258.46 53.5043C258.221 52.9957 258.102 52.4148 258.102 51.7614C258.102 51.0966 258.224 50.5099 258.468 50.0014C258.716 49.4901 259.059 49.0909 259.5 48.804C259.943 48.5142 260.46 48.3693 261.051 48.3693C261.511 48.3693 261.926 48.4545 262.295 48.625C262.664 48.7955 262.967 49.0341 263.203 49.3409C263.439 49.6477 263.585 50.0057 263.642 50.4148H262.636C262.559 50.1165 262.389 49.8523 262.125 49.6222C261.863 49.3892 261.511 49.2727 261.068 49.2727C260.676 49.2727 260.332 49.375 260.037 49.5795C259.744 49.7812 259.515 50.0668 259.35 50.4361C259.189 50.8026 259.108 51.233 259.108 51.7273C259.108 52.233 259.187 52.6733 259.346 53.0483C259.508 53.4233 259.735 53.7145 260.028 53.9219C260.324 54.1293 260.67 54.233 261.068 54.233C261.329 54.233 261.566 54.1875 261.779 54.0966C261.993 54.0057 262.173 53.875 262.321 53.7045C262.468 53.5341 262.574 53.3295 262.636 53.0909H263.642C263.585 53.4773 263.444 53.8253 263.22 54.1349C262.998 54.4418 262.704 54.6861 262.338 54.8679C261.974 55.0469 261.551 55.1364 261.068 55.1364ZM265.112 55V48.4545H266.118V55H265.112ZM265.623 47.3636C265.427 47.3636 265.258 47.2969 265.116 47.1634C264.977 47.0298 264.907 46.8693 264.907 46.6818C264.907 46.4943 264.977 46.3338 265.116 46.2003C265.258 46.0668 265.427 46 265.623 46C265.819 46 265.987 46.0668 266.126 46.2003C266.268 46.3338 266.339 46.4943 266.339 46.6818C266.339 46.8693 266.268 47.0298 266.126 47.1634C265.987 47.2969 265.819 47.3636 265.623 47.3636ZM269.886 55.1534C269.471 55.1534 269.094 55.0753 268.756 54.919C268.418 54.7599 268.15 54.5312 267.951 54.233C267.752 53.9318 267.653 53.5682 267.653 53.142C267.653 52.767 267.727 52.4631 267.874 52.2301C268.022 51.9943 268.219 51.8097 268.467 51.6761C268.714 51.5426 268.987 51.4432 269.285 51.3778C269.586 51.3097 269.888 51.2557 270.192 51.2159C270.59 51.1648 270.913 51.1264 271.16 51.1009C271.41 51.0724 271.592 51.0256 271.705 50.9602C271.822 50.8949 271.88 50.7812 271.88 50.6193V50.5852C271.88 50.1648 271.765 49.8381 271.535 49.6051C271.308 49.3722 270.962 49.2557 270.499 49.2557C270.019 49.2557 269.643 49.3608 269.37 49.571C269.097 49.7812 268.906 50.0057 268.795 50.2443L267.84 49.9034C268.011 49.5057 268.238 49.196 268.522 48.9744C268.809 48.75 269.121 48.5937 269.46 48.5057C269.8 48.4148 270.136 48.3693 270.465 48.3693C270.675 48.3693 270.917 48.3949 271.19 48.446C271.465 48.4943 271.731 48.5952 271.987 48.7486C272.245 48.902 272.46 49.1335 272.63 49.4432C272.8 49.7528 272.886 50.1676 272.886 50.6875V55H271.88V54.1136H271.829C271.761 54.2557 271.647 54.4077 271.488 54.5696C271.329 54.7315 271.117 54.8693 270.853 54.983C270.589 55.0966 270.266 55.1534 269.886 55.1534ZM270.039 54.25C270.437 54.25 270.772 54.1719 271.045 54.0156C271.32 53.8594 271.528 53.6577 271.667 53.4105C271.809 53.1634 271.88 52.9034 271.88 52.6307V51.7102C271.837 51.7614 271.744 51.8082 271.599 51.8509C271.457 51.8906 271.292 51.9261 271.104 51.9574C270.92 51.9858 270.739 52.0114 270.563 52.0341C270.39 52.054 270.249 52.071 270.141 52.0852C269.88 52.1193 269.636 52.1747 269.408 52.2514C269.184 52.3253 269.002 52.4375 268.863 52.5881C268.727 52.7358 268.658 52.9375 268.658 53.1932C268.658 53.5426 268.788 53.8068 269.046 53.9858C269.308 54.1619 269.638 54.25 270.039 54.25ZM275.727 46.2727V55H274.721V46.2727H275.727ZM283.859 48.4545V49.3068H280.33V48.4545H283.859ZM281.387 55V47.5511C281.387 47.1761 281.475 46.8636 281.651 46.6136C281.827 46.3636 282.056 46.1761 282.337 46.0511C282.619 45.9261 282.915 45.8636 283.228 45.8636C283.475 45.8636 283.677 45.8835 283.833 45.9233C283.989 45.9631 284.106 46 284.183 46.0341L283.893 46.9034C283.842 46.8864 283.771 46.8651 283.68 46.8395C283.592 46.8139 283.475 46.8011 283.33 46.8011C282.998 46.8011 282.758 46.8849 282.61 47.0526C282.465 47.2202 282.393 47.4659 282.393 47.7898V55H281.387ZM287.743 55.1364C287.112 55.1364 286.568 54.9972 286.111 54.7188C285.656 54.4375 285.305 54.0455 285.058 53.5426C284.814 53.0369 284.692 52.4489 284.692 51.7784C284.692 51.108 284.814 50.517 285.058 50.0057C285.305 49.4915 285.649 49.0909 286.089 48.804C286.533 48.5142 287.05 48.3693 287.641 48.3693C287.982 48.3693 288.318 48.4261 288.651 48.5398C288.983 48.6534 289.286 48.8381 289.558 49.0938C289.831 49.3466 290.048 49.6818 290.21 50.0994C290.372 50.517 290.453 51.0312 290.453 51.642V52.0682H285.408V51.1989H289.43C289.43 50.8295 289.357 50.5 289.209 50.2102C289.064 49.9205 288.857 49.6918 288.587 49.5241C288.32 49.3565 288.004 49.2727 287.641 49.2727C287.24 49.2727 286.893 49.3722 286.601 49.571C286.311 49.767 286.088 50.0227 285.932 50.3381C285.776 50.6534 285.697 50.9915 285.697 51.3523V51.9318C285.697 52.4261 285.783 52.8452 285.953 53.1889C286.126 53.5298 286.366 53.7898 286.673 53.9688C286.98 54.1449 287.337 54.233 287.743 54.233C288.007 54.233 288.246 54.196 288.459 54.1222C288.675 54.0455 288.861 53.9318 289.017 53.7812C289.173 53.6278 289.294 53.4375 289.379 53.2102L290.351 53.483C290.249 53.8125 290.077 54.1023 289.835 54.3523C289.594 54.5994 289.295 54.7926 288.94 54.9318C288.585 55.0682 288.186 55.1364 287.743 55.1364ZM293.909 55.1534C293.494 55.1534 293.118 55.0753 292.78 54.919C292.442 54.7599 292.173 54.5312 291.974 54.233C291.776 53.9318 291.676 53.5682 291.676 53.142C291.676 52.767 291.75 52.4631 291.898 52.2301C292.045 51.9943 292.243 51.8097 292.49 51.6761C292.737 51.5426 293.01 51.4432 293.308 51.3778C293.609 51.3097 293.912 51.2557 294.216 51.2159C294.614 51.1648 294.936 51.1264 295.183 51.1009C295.433 51.0724 295.615 51.0256 295.729 50.9602C295.845 50.8949 295.903 50.7812 295.903 50.6193V50.5852C295.903 50.1648 295.788 49.8381 295.558 49.6051C295.331 49.3722 294.986 49.2557 294.523 49.2557C294.043 49.2557 293.666 49.3608 293.393 49.571C293.121 49.7812 292.929 50.0057 292.818 50.2443L291.864 49.9034C292.034 49.5057 292.261 49.196 292.545 48.9744C292.832 48.75 293.145 48.5937 293.483 48.5057C293.824 48.4148 294.159 48.3693 294.489 48.3693C294.699 48.3693 294.94 48.3949 295.213 48.446C295.489 48.4943 295.754 48.5952 296.01 48.7486C296.268 48.902 296.483 49.1335 296.653 49.4432C296.824 49.7528 296.909 50.1676 296.909 50.6875V55H295.903V54.1136H295.852C295.784 54.2557 295.67 54.4077 295.511 54.5696C295.352 54.7315 295.141 54.8693 294.876 54.983C294.612 55.0966 294.29 55.1534 293.909 55.1534ZM294.062 54.25C294.46 54.25 294.795 54.1719 295.068 54.0156C295.344 53.8594 295.551 53.6577 295.69 53.4105C295.832 53.1634 295.903 52.9034 295.903 52.6307V51.7102C295.861 51.7614 295.767 51.8082 295.622 51.8509C295.48 51.8906 295.315 51.9261 295.128 51.9574C294.943 51.9858 294.763 52.0114 294.587 52.0341C294.413 52.054 294.273 52.071 294.165 52.0852C293.903 52.1193 293.659 52.1747 293.432 52.2514C293.207 52.3253 293.026 52.4375 292.886 52.5881C292.75 52.7358 292.682 52.9375 292.682 53.1932C292.682 53.5426 292.811 53.8068 293.07 53.9858C293.331 54.1619 293.662 54.25 294.062 54.25ZM301.591 48.4545V49.3068H298.199V48.4545H301.591ZM299.188 46.8864H300.194V53.125C300.194 53.4091 300.235 53.6222 300.317 53.7642C300.402 53.9034 300.51 53.9972 300.641 54.0455C300.775 54.0909 300.915 54.1136 301.063 54.1136C301.174 54.1136 301.265 54.108 301.336 54.0966C301.407 54.0824 301.463 54.071 301.506 54.0625L301.711 54.9659C301.642 54.9915 301.547 55.017 301.425 55.0426C301.303 55.071 301.148 55.0852 300.961 55.0852C300.676 55.0852 300.398 55.0241 300.125 54.902C299.855 54.7798 299.631 54.5938 299.452 54.3438C299.276 54.0938 299.188 53.7784 299.188 53.3977V46.8864ZM307.229 52.3239V48.4545H308.235V55H307.229V53.892H307.161C307.007 54.2244 306.769 54.5071 306.445 54.7401C306.121 54.9702 305.712 55.0852 305.218 55.0852C304.809 55.0852 304.445 54.9957 304.127 54.8168C303.809 54.6349 303.559 54.3622 303.377 53.9986C303.195 53.6321 303.104 53.1705 303.104 52.6136V48.4545H304.11V52.5455C304.11 53.0227 304.243 53.4034 304.51 53.6875C304.78 53.9716 305.124 54.1136 305.542 54.1136C305.792 54.1136 306.046 54.0497 306.304 53.9219C306.566 53.794 306.784 53.598 306.961 53.3338C307.14 53.0696 307.229 52.733 307.229 52.3239ZM310.077 55V48.4545H311.048V49.4432H311.116C311.236 49.1193 311.452 48.8565 311.764 48.6548C312.077 48.4531 312.429 48.3523 312.821 48.3523C312.895 48.3523 312.987 48.3537 313.098 48.3565C313.209 48.3594 313.293 48.3636 313.349 48.3693V49.392C313.315 49.3835 313.237 49.3707 313.115 49.3537C312.996 49.3338 312.869 49.3239 312.736 49.3239C312.418 49.3239 312.134 49.3906 311.884 49.5241C311.636 49.6548 311.44 49.8366 311.295 50.0696C311.153 50.2997 311.082 50.5625 311.082 50.858V55H310.077ZM317.087 55.1364C316.456 55.1364 315.912 54.9972 315.455 54.7188C315 54.4375 314.649 54.0455 314.402 53.5426C314.158 53.0369 314.036 52.4489 314.036 51.7784C314.036 51.108 314.158 50.517 314.402 50.0057C314.649 49.4915 314.993 49.0909 315.433 48.804C315.876 48.5142 316.393 48.3693 316.984 48.3693C317.325 48.3693 317.662 48.4261 317.994 48.5398C318.327 48.6534 318.629 48.8381 318.902 49.0938C319.175 49.3466 319.392 49.6818 319.554 50.0994C319.716 50.517 319.797 51.0312 319.797 51.642V52.0682H314.751V51.1989H318.774C318.774 50.8295 318.7 50.5 318.553 50.2102C318.408 49.9205 318.2 49.6918 317.93 49.5241C317.663 49.3565 317.348 49.2727 316.984 49.2727C316.584 49.2727 316.237 49.3722 315.945 49.571C315.655 49.767 315.432 50.0227 315.276 50.3381C315.119 50.6534 315.041 50.9915 315.041 51.3523V51.9318C315.041 52.4261 315.126 52.8452 315.297 53.1889C315.47 53.5298 315.71 53.7898 316.017 53.9688C316.324 54.1449 316.68 54.233 317.087 54.233C317.351 54.233 317.589 54.196 317.803 54.1222C318.018 54.0455 318.205 53.9318 318.361 53.7812C318.517 53.6278 318.638 53.4375 318.723 53.2102L319.695 53.483C319.592 53.8125 319.42 54.1023 319.179 54.3523C318.938 54.5994 318.639 54.7926 318.284 54.9318C317.929 55.0682 317.53 55.1364 317.087 55.1364ZM325.963 49.9205L325.06 50.1761C325.003 50.0256 324.919 49.8793 324.808 49.7372C324.7 49.5923 324.553 49.473 324.365 49.3793C324.178 49.2855 323.938 49.2386 323.645 49.2386C323.244 49.2386 322.911 49.331 322.643 49.5156C322.379 49.6974 322.247 49.929 322.247 50.2102C322.247 50.4602 322.338 50.6577 322.52 50.8026C322.702 50.9474 322.986 51.0682 323.372 51.1648L324.344 51.4034C324.929 51.5455 325.365 51.7628 325.652 52.0554C325.939 52.3452 326.082 52.7187 326.082 53.1761C326.082 53.5511 325.974 53.8864 325.759 54.1818C325.545 54.4773 325.247 54.7102 324.864 54.8807C324.48 55.0511 324.034 55.1364 323.526 55.1364C322.858 55.1364 322.305 54.9915 321.868 54.7017C321.43 54.4119 321.153 53.9886 321.037 53.4318L321.991 53.1932C322.082 53.5455 322.254 53.8097 322.507 53.9858C322.763 54.1619 323.097 54.25 323.509 54.25C323.977 54.25 324.349 54.1506 324.625 53.9517C324.903 53.75 325.043 53.5085 325.043 53.2273C325.043 53 324.963 52.8097 324.804 52.6562C324.645 52.5 324.401 52.3835 324.071 52.3068L322.98 52.0511C322.381 51.9091 321.94 51.6889 321.659 51.3906C321.381 51.0895 321.241 50.7131 321.241 50.2614C321.241 49.892 321.345 49.5653 321.553 49.2812C321.763 48.9972 322.048 48.7741 322.409 48.6122C322.773 48.4503 323.185 48.3693 323.645 48.3693C324.293 48.3693 324.801 48.5114 325.17 48.7955C325.543 49.0795 325.807 49.4545 325.963 49.9205Z" fill="#0A0A0A"/>
<path d="M370.68 108.5H404.68C411.031 108.5 416.18 113.649 416.18 120C416.18 126.351 411.031 131.5 404.68 131.5H370.68C364.328 131.5 359.18 126.351 359.18 120C359.18 113.649 364.328 108.5 370.68 108.5Z" fill="white"/>
<path d="M370.68 108.5H404.68C411.031 108.5 416.18 113.649 416.18 120C416.18 126.351 411.031 131.5 404.68 131.5H370.68C364.328 131.5 359.18 126.351 359.18 120C359.18 113.649 364.328 108.5 370.68 108.5Z" stroke="#F5F5F5"/>
<path d="M369.998 124V115.273H371.055V119.159H375.708V115.273H376.765V124H375.708V120.097H371.055V124H369.998ZM381.489 124.136C380.858 124.136 380.314 123.997 379.857 123.719C379.402 123.438 379.051 123.045 378.804 122.543C378.56 122.037 378.438 121.449 378.438 120.778C378.438 120.108 378.56 119.517 378.804 119.006C379.051 118.491 379.395 118.091 379.836 117.804C380.279 117.514 380.796 117.369 381.387 117.369C381.728 117.369 382.064 117.426 382.397 117.54C382.729 117.653 383.032 117.838 383.304 118.094C383.577 118.347 383.794 118.682 383.956 119.099C384.118 119.517 384.199 120.031 384.199 120.642V121.068H379.154V120.199H383.176C383.176 119.83 383.103 119.5 382.955 119.21C382.81 118.92 382.603 118.692 382.333 118.524C382.066 118.357 381.75 118.273 381.387 118.273C380.986 118.273 380.64 118.372 380.347 118.571C380.057 118.767 379.834 119.023 379.678 119.338C379.522 119.653 379.444 119.991 379.444 120.352V120.932C379.444 121.426 379.529 121.845 379.699 122.189C379.873 122.53 380.113 122.79 380.419 122.969C380.726 123.145 381.083 123.233 381.489 123.233C381.753 123.233 381.992 123.196 382.205 123.122C382.421 123.045 382.607 122.932 382.763 122.781C382.919 122.628 383.04 122.437 383.125 122.21L384.097 122.483C383.995 122.812 383.823 123.102 383.581 123.352C383.34 123.599 383.042 123.793 382.686 123.932C382.331 124.068 381.932 124.136 381.489 124.136ZM385.729 124V117.455H386.735V124H385.729ZM386.24 116.364C386.044 116.364 385.875 116.297 385.733 116.163C385.594 116.03 385.525 115.869 385.525 115.682C385.525 115.494 385.594 115.334 385.733 115.2C385.875 115.067 386.044 115 386.24 115C386.436 115 386.604 115.067 386.743 115.2C386.885 115.334 386.956 115.494 386.956 115.682C386.956 115.869 386.885 116.03 386.743 116.163C386.604 116.297 386.436 116.364 386.24 116.364ZM391.219 126.591C390.733 126.591 390.315 126.528 389.966 126.403C389.616 126.281 389.325 126.119 389.092 125.918C388.862 125.719 388.679 125.506 388.543 125.278L389.344 124.716C389.435 124.835 389.55 124.972 389.689 125.125C389.828 125.281 390.018 125.416 390.26 125.53C390.504 125.646 390.824 125.705 391.219 125.705C391.747 125.705 392.183 125.577 392.527 125.321C392.871 125.065 393.043 124.665 393.043 124.119V122.79H392.957C392.884 122.909 392.778 123.057 392.642 123.233C392.509 123.406 392.315 123.561 392.062 123.697C391.812 123.831 391.474 123.898 391.048 123.898C390.52 123.898 390.045 123.773 389.625 123.523C389.207 123.273 388.876 122.909 388.632 122.432C388.391 121.955 388.27 121.375 388.27 120.693C388.27 120.023 388.388 119.439 388.624 118.942C388.859 118.442 389.188 118.055 389.608 117.783C390.028 117.507 390.514 117.369 391.065 117.369C391.491 117.369 391.83 117.44 392.08 117.582C392.332 117.722 392.526 117.881 392.659 118.06C392.795 118.236 392.901 118.381 392.974 118.494H393.077V117.455H394.048V124.188C394.048 124.75 393.92 125.207 393.665 125.56C393.412 125.915 393.071 126.175 392.642 126.339C392.216 126.507 391.741 126.591 391.219 126.591ZM391.185 122.994C391.588 122.994 391.929 122.902 392.207 122.717C392.486 122.533 392.697 122.267 392.842 121.92C392.987 121.574 393.06 121.159 393.06 120.676C393.06 120.205 392.989 119.788 392.847 119.428C392.705 119.067 392.494 118.784 392.216 118.58C391.938 118.375 391.594 118.273 391.185 118.273C390.759 118.273 390.403 118.381 390.119 118.597C389.838 118.812 389.626 119.102 389.484 119.466C389.345 119.83 389.276 120.233 389.276 120.676C389.276 121.131 389.347 121.533 389.489 121.882C389.634 122.229 389.847 122.501 390.128 122.7C390.412 122.896 390.764 122.994 391.185 122.994ZM396.895 120.062V124H395.889V115.273H396.895V118.477H396.98C397.134 118.139 397.364 117.871 397.67 117.672C397.98 117.47 398.392 117.369 398.906 117.369C399.352 117.369 399.743 117.459 400.078 117.638C400.413 117.814 400.673 118.085 400.858 118.452C401.045 118.815 401.139 119.278 401.139 119.841V124H400.134V119.909C400.134 119.389 399.999 118.987 399.729 118.703C399.462 118.416 399.091 118.273 398.616 118.273C398.287 118.273 397.991 118.342 397.73 118.482C397.472 118.621 397.267 118.824 397.116 119.091C396.969 119.358 396.895 119.682 396.895 120.062ZM405.826 117.455V118.307H402.434V117.455H405.826ZM403.422 115.886H404.428V122.125C404.428 122.409 404.469 122.622 404.551 122.764C404.637 122.903 404.745 122.997 404.875 123.045C405.009 123.091 405.15 123.114 405.297 123.114C405.408 123.114 405.499 123.108 405.57 123.097C405.641 123.082 405.698 123.071 405.74 123.062L405.945 123.966C405.877 123.991 405.782 124.017 405.659 124.043C405.537 124.071 405.382 124.085 405.195 124.085C404.911 124.085 404.632 124.024 404.36 123.902C404.09 123.78 403.865 123.594 403.686 123.344C403.51 123.094 403.422 122.778 403.422 122.398V115.886Z" fill="#0A0A0A"/>
<path d="M263.68 187.5H307.68C314.031 187.5 319.18 192.649 319.18 199C319.18 205.351 314.031 210.5 307.68 210.5H263.68C257.328 210.5 252.18 205.351 252.18 199C252.18 192.649 257.328 187.5 263.68 187.5Z" fill="white"/>
<path d="M263.68 187.5H307.68C314.031 187.5 319.18 192.649 319.18 199C319.18 205.351 314.031 210.5 307.68 210.5H263.68C257.328 210.5 252.18 205.351 252.18 199C252.18 192.649 257.328 187.5 263.68 187.5Z" stroke="#F5F5F5"/>
<path d="M270.005 197H268.949C268.886 196.696 268.777 196.429 268.62 196.199C268.467 195.969 268.279 195.776 268.058 195.619C267.839 195.46 267.596 195.341 267.329 195.261C267.062 195.182 266.784 195.142 266.494 195.142C265.966 195.142 265.487 195.276 265.058 195.543C264.632 195.81 264.292 196.203 264.039 196.723C263.789 197.243 263.664 197.881 263.664 198.636C263.664 199.392 263.789 200.03 264.039 200.55C264.292 201.07 264.632 201.463 265.058 201.73C265.487 201.997 265.966 202.131 266.494 202.131C266.784 202.131 267.062 202.091 267.329 202.011C267.596 201.932 267.839 201.814 268.058 201.658C268.279 201.499 268.467 201.304 268.62 201.074C268.777 200.841 268.886 200.574 268.949 200.273H270.005C269.926 200.719 269.781 201.118 269.571 201.47C269.36 201.822 269.099 202.122 268.787 202.369C268.474 202.614 268.123 202.8 267.734 202.928C267.348 203.055 266.934 203.119 266.494 203.119C265.75 203.119 265.088 202.938 264.508 202.574C263.929 202.21 263.473 201.693 263.14 201.023C262.808 200.352 262.642 199.557 262.642 198.636C262.642 197.716 262.808 196.92 263.14 196.25C263.473 195.58 263.929 195.062 264.508 194.699C265.088 194.335 265.75 194.153 266.494 194.153C266.934 194.153 267.348 194.217 267.734 194.345C268.123 194.473 268.474 194.661 268.787 194.908C269.099 195.152 269.36 195.45 269.571 195.803C269.781 196.152 269.926 196.551 270.005 197ZM272.582 194.273V203H271.577V194.273H272.582ZM277.083 203.136C276.493 203.136 275.974 202.996 275.528 202.714C275.085 202.433 274.738 202.04 274.488 201.534C274.241 201.028 274.118 200.437 274.118 199.761C274.118 199.08 274.241 198.484 274.488 197.976C274.738 197.467 275.085 197.072 275.528 196.791C275.974 196.51 276.493 196.369 277.083 196.369C277.674 196.369 278.191 196.51 278.635 196.791C279.081 197.072 279.427 197.467 279.674 197.976C279.924 198.484 280.049 199.08 280.049 199.761C280.049 200.437 279.924 201.028 279.674 201.534C279.427 202.04 279.081 202.433 278.635 202.714C278.191 202.996 277.674 203.136 277.083 203.136ZM277.083 202.233C277.532 202.233 277.902 202.118 278.191 201.888C278.481 201.658 278.696 201.355 278.835 200.98C278.974 200.605 279.044 200.199 279.044 199.761C279.044 199.324 278.974 198.916 278.835 198.538C278.696 198.161 278.481 197.855 278.191 197.622C277.902 197.389 277.532 197.273 277.083 197.273C276.635 197.273 276.265 197.389 275.975 197.622C275.686 197.855 275.471 198.161 275.332 198.538C275.193 198.916 275.123 199.324 275.123 199.761C275.123 200.199 275.193 200.605 275.332 200.98C275.471 201.355 275.686 201.658 275.975 201.888C276.265 202.118 276.635 202.233 277.083 202.233ZM284.431 196.455V197.307H281.039V196.455H284.431ZM282.028 194.886H283.033V201.125C283.033 201.409 283.075 201.622 283.157 201.764C283.242 201.903 283.35 201.997 283.481 202.045C283.614 202.091 283.755 202.114 283.903 202.114C284.013 202.114 284.104 202.108 284.175 202.097C284.246 202.082 284.303 202.071 284.346 202.062L284.55 202.966C284.482 202.991 284.387 203.017 284.265 203.043C284.143 203.071 283.988 203.085 283.8 203.085C283.516 203.085 283.238 203.024 282.965 202.902C282.695 202.78 282.471 202.594 282.292 202.344C282.116 202.094 282.028 201.778 282.028 201.398V194.886ZM287.09 199.062V203H286.085V194.273H287.09V197.477H287.175C287.329 197.139 287.559 196.871 287.866 196.672C288.175 196.47 288.587 196.369 289.102 196.369C289.548 196.369 289.938 196.459 290.273 196.638C290.609 196.814 290.869 197.085 291.053 197.452C291.241 197.815 291.335 198.278 291.335 198.841V203H290.329V198.909C290.329 198.389 290.194 197.987 289.924 197.703C289.657 197.416 289.286 197.273 288.812 197.273C288.482 197.273 288.187 197.342 287.925 197.482C287.667 197.621 287.462 197.824 287.312 198.091C287.164 198.358 287.09 198.682 287.09 199.062ZM293.174 203V196.455H294.18V203H293.174ZM293.686 195.364C293.49 195.364 293.321 195.297 293.179 195.163C293.039 195.03 292.97 194.869 292.97 194.682C292.97 194.494 293.039 194.334 293.179 194.2C293.321 194.067 293.49 194 293.686 194C293.882 194 294.049 194.067 294.189 194.2C294.331 194.334 294.402 194.494 294.402 194.682C294.402 194.869 294.331 195.03 294.189 195.163C294.049 195.297 293.882 195.364 293.686 195.364ZM297.028 199.062V203H296.022V196.455H296.994V197.477H297.079C297.232 197.145 297.465 196.878 297.778 196.676C298.09 196.472 298.494 196.369 298.988 196.369C299.431 196.369 299.819 196.46 300.151 196.642C300.484 196.821 300.742 197.094 300.927 197.46C301.112 197.824 301.204 198.284 301.204 198.841V203H300.198V198.909C300.198 198.395 300.065 197.994 299.798 197.707C299.531 197.418 299.164 197.273 298.698 197.273C298.377 197.273 298.09 197.342 297.837 197.482C297.587 197.621 297.39 197.824 297.245 198.091C297.1 198.358 297.028 198.682 297.028 199.062ZM305.684 205.591C305.198 205.591 304.78 205.528 304.431 205.403C304.081 205.281 303.79 205.119 303.557 204.918C303.327 204.719 303.144 204.506 303.007 204.278L303.809 203.716C303.9 203.835 304.015 203.972 304.154 204.125C304.293 204.281 304.483 204.416 304.725 204.53C304.969 204.646 305.289 204.705 305.684 204.705C306.212 204.705 306.648 204.577 306.992 204.321C307.336 204.065 307.507 203.665 307.507 203.119V201.79H307.422C307.348 201.909 307.243 202.057 307.107 202.233C306.973 202.406 306.78 202.561 306.527 202.697C306.277 202.831 305.939 202.898 305.513 202.898C304.985 202.898 304.51 202.773 304.09 202.523C303.672 202.273 303.341 201.909 303.097 201.432C302.855 200.955 302.735 200.375 302.735 199.693C302.735 199.023 302.853 198.439 303.088 197.942C303.324 197.442 303.652 197.055 304.073 196.783C304.493 196.507 304.979 196.369 305.53 196.369C305.956 196.369 306.294 196.44 306.544 196.582C306.797 196.722 306.99 196.881 307.124 197.06C307.26 197.236 307.365 197.381 307.439 197.494H307.542V196.455H308.513V203.188C308.513 203.75 308.385 204.207 308.13 204.56C307.877 204.915 307.536 205.175 307.107 205.339C306.681 205.507 306.206 205.591 305.684 205.591ZM305.65 201.994C306.053 201.994 306.394 201.902 306.672 201.717C306.951 201.533 307.162 201.267 307.307 200.92C307.452 200.574 307.525 200.159 307.525 199.676C307.525 199.205 307.453 198.788 307.311 198.428C307.169 198.067 306.959 197.784 306.681 197.58C306.402 197.375 306.059 197.273 305.65 197.273C305.223 197.273 304.868 197.381 304.584 197.597C304.303 197.812 304.091 198.102 303.949 198.466C303.81 198.83 303.74 199.233 303.74 199.676C303.74 200.131 303.811 200.533 303.953 200.882C304.098 201.229 304.311 201.501 304.593 201.7C304.877 201.896 305.229 201.994 305.65 201.994Z" fill="#0A0A0A"/>
<path d="M285.68 156.5C274.91 156.5 266.18 147.77 266.18 137C266.18 126.23 274.91 117.5 285.68 117.5C296.449 117.5 305.18 126.23 305.18 137C305.18 147.77 296.449 156.5 285.68 156.5Z" fill="white"/>
<path d="M285.68 156.5C274.91 156.5 266.18 147.77 266.18 137C266.18 126.23 274.91 117.5 285.68 117.5C296.449 117.5 305.18 126.23 305.18 137C305.18 147.77 296.449 156.5 285.68 156.5Z" stroke="#F5F5F5"/>
<g clip-path="url(#clip2_3357_8697)">
<path fill-rule="evenodd" clip-rule="evenodd" d="M285.68 129C283.471 129 281.68 130.791 281.68 133C281.68 135.209 283.471 137 285.68 137C287.889 137 289.68 135.209 289.68 133C289.68 130.791 287.889 129 285.68 129ZM279.68 133C279.68 129.686 282.366 127 285.68 127C288.993 127 291.68 129.686 291.68 133C291.68 136.314 288.993 139 285.68 139C282.366 139 279.68 136.314 279.68 133Z" fill="#0A0A0A"/>
<path fill-rule="evenodd" clip-rule="evenodd" d="M279.316 139.636C281.004 137.948 283.293 137 285.68 137C288.067 137 290.356 137.948 292.044 139.636C293.731 141.324 294.68 143.613 294.68 146C294.68 146.552 294.232 147 293.68 147C293.127 147 292.68 146.552 292.68 146C292.68 144.143 291.942 142.363 290.629 141.05C289.317 139.737 287.536 139 285.68 139C283.823 139 282.043 139.737 280.73 141.05C279.417 142.363 278.68 144.143 278.68 146C278.68 146.552 278.232 147 277.68 147C277.127 147 276.68 146.552 276.68 146C276.68 143.613 277.628 141.324 279.316 139.636Z" fill="#0A0A0A"/>
</g>
</g>
<defs>
<clipPath id="clip0_3357_8697">
<rect width="570" height="222" fill="white"/>
</clipPath>
<clipPath id="clip1_3357_8697">
<rect width="10.0043" height="10.0043" fill="white" transform="translate(292.34 137.95) rotate(142.74)"/>
</clipPath>
<clipPath id="clip2_3357_8697">
<rect width="20" height="20" fill="white" transform="translate(275.68 127)"/>
</clipPath>
</defs>
</svg>
